<?xml version="1.0" encoding="UTF-8"?>
<svg version="1.1" xmlns="http://www.w3.org/2000/svg" width="512" height="512">
<path d="M0 0 C2.21238549 -0.00571107 4.42476804 -0.01267816 6.637146 -0.02079773 C12.61457545 -0.038664 18.59185758 -0.03757289 24.56930566 -0.03185534 C29.57391154 -0.02875363 34.57848953 -0.03486694 39.58309144 -0.04089409 C52.07176639 -0.0557167 64.56037065 -0.05214407 77.04904052 -0.04003078 C87.85920294 -0.03010492 98.66919403 -0.04303402 109.47933004 -0.06696498 C120.61723477 -0.09143303 131.75507067 -0.10054648 142.89300317 -0.09431225 C149.13084878 -0.09095397 155.36855294 -0.09328231 161.60637856 -0.11056328 C167.47608118 -0.12611622 173.34545875 -0.1219846 179.21514893 -0.10325813 C181.35797759 -0.09959511 183.50083079 -0.10261319 185.6436367 -0.11314392 C200.97646015 -0.1826899 215.48760671 0.76713424 229.31518555 8.15405273 C229.92233398 8.45053711 230.52948242 8.74702148 231.1550293 9.05249023 C241.28732673 14.25613359 249.44818099 22.58836286 257.4440918 30.53686523 C258.41709353 31.50086049 259.39015289 32.46479759 260.36326599 33.42868042 C262.38793417 35.43700345 264.40829817 37.44954909 266.42626953 39.46459961 C268.47103475 41.5050592 270.52376468 43.5369233 272.58447266 45.5612793 C293.86725545 66.47537701 309.57232006 86.85886271 310.07161331 118.06083012 C310.07957321 119.68588683 310.08233499 121.3109751 310.08062744 122.93605042 C310.08508412 124.29303926 310.08508412 124.29303926 310.08963084 125.67744201 C310.09823552 128.67950224 310.099819 131.68152221 310.10131836 134.68359375 C310.10595212 136.84777917 310.11097753 139.01196378 310.11636353 141.17614746 C310.12942977 147.0334105 310.13592035 152.89066212 310.14037418 158.74793744 C310.14331231 162.4101605 310.14741835 166.07238048 310.15187836 169.73460197 C310.16553375 181.20192911 310.1752118 192.66924916 310.17908025 204.13658386 C310.18356603 217.3590071 310.20114629 230.58132722 310.23008084 243.8037191 C310.25169831 254.03837373 310.26178445 264.27299933 310.26312137 274.50767654 C310.2641687 280.61510342 310.27006225 286.72243311 310.28794098 292.82983589 C310.30442423 298.57137508 310.30657585 304.31274398 310.29780197 310.0542984 C310.29703193 312.15814355 310.30136998 314.26199789 310.31126022 316.36581993 C310.32399408 319.24376142 310.31809515 322.12110092 310.30767822 324.9990387 C310.31573463 325.8259015 310.32379103 326.6527643 310.33209157 327.50468355 C310.26351054 335.63867803 308.3420391 342.92717278 302.6706543 348.96264648 C298.21446707 352.67445932 292.78975225 354.01301442 287.01831055 353.75170898 C281.53477213 352.83435011 276.66322952 350.64597722 273.00268555 346.40405273 C269.23626547 340.92562354 268.65074441 337.16825201 268.68190002 330.51333618 C268.67822432 329.60508067 268.67454862 328.69682517 268.67076153 327.76104677 C268.66076322 324.71051414 268.66493611 321.66016314 268.66894531 318.60961914 C268.66455908 316.42487392 268.6592573 314.24013037 268.65310669 312.0553894 C268.64159361 307.34530235 268.63614627 302.63526035 268.6352253 297.92515945 C268.6332855 290.46905677 268.61523482 283.01304716 268.59446716 275.55697632 C268.56667857 265.09406182 268.54370635 254.63115084 268.52685547 244.16821289 C268.52578279 243.50424953 268.52471011 242.84028618 268.52360492 242.15620272 C268.51180345 234.76083455 268.50159687 227.36546554 268.49316406 219.97009277 C268.47664168 205.58735232 268.45372262 191.20468091 268.41014332 176.82199228 C268.38842669 169.4196678 268.38030371 162.01749432 268.38253605 154.6151402 C268.38086149 149.99281935 268.36676411 145.37059579 268.34932327 140.74831009 C268.34375444 138.61594352 268.34321 136.48355652 268.34826088 134.35118866 C268.39190511 113.75416892 266.54326501 98.66569957 251.43179321 83.36552429 C250.64307831 82.58804337 249.8543634 81.81056244 249.04174805 81.00952148 C248.20735199 80.1736702 247.37295593 79.33781891 246.51327515 78.47663879 C244.76164143 76.72665244 243.0051128 74.98155286 241.24389648 73.24121094 C238.56674507 70.59309534 235.90884381 67.92672297 233.25268555 65.25756836 C231.53765079 63.54877021 229.82154074 61.84105046 228.10424805 60.13452148 C227.3195816 59.3469194 226.53491516 58.55931732 225.72647095 57.74784851 C213.33030782 45.55924667 201.61041343 41.23499491 184.39019775 41.27033997 C183.56695157 41.26807441 182.74370538 41.26580885 181.89551234 41.26347464 C179.15680812 41.25718107 176.41815398 41.25796101 173.67944336 41.25878906 C171.70761044 41.25579466 169.7357781 41.25239148 167.76394653 41.24861145 C162.42080659 41.23979556 157.07768268 41.23743434 151.73453617 41.23679566 C148.39224393 41.23608376 145.04995573 41.23394676 141.70766449 41.23129845 C130.03581993 41.22205278 118.36398677 41.21796256 106.69213867 41.21875 C95.83131788 41.21935048 84.9705468 41.20880242 74.10973859 41.19300634 C64.76933728 41.17990814 55.42895217 41.17456707 46.08854175 41.17520541 C40.51701022 41.17545974 34.94552289 41.17264452 29.37400055 41.16202736 C24.13071346 41.15230806 18.88751248 41.15229339 13.64422226 41.15954399 C11.72708637 41.1605851 9.80994501 41.15825529 7.89281845 41.15218353 C-16.24515582 41.07366323 -16.24515582 41.07366323 -36.93481445 52.59155273 C-47.11062839 63.86207526 -48.35716346 76.39105568 -48.37866211 90.91992188 C-48.38797549 92.36951243 -48.39814623 93.81909769 -48.40910339 95.26867676 C-48.43625865 99.17916495 -48.45150954 103.0896174 -48.46453142 107.00017476 C-48.48022574 111.09614076 -48.50699568 115.19203448 -48.53256226 119.28794861 C-48.57923896 127.0330936 -48.61603662 134.77825236 -48.64923513 142.52346557 C-48.68753528 151.34580034 -48.73692462 160.16806231 -48.78721929 168.99033558 C-48.89037381 187.12818793 -48.9796875 205.26608478 -49.05981445 223.40405273 C-48.461483 223.18298859 -47.86315155 222.96192444 -47.24668884 222.73416138 C-41.00201627 220.42752825 -34.75602921 218.12448227 -28.50927734 215.82348633 C-26.18016413 214.96502555 -23.85138418 214.10566004 -21.52294922 213.24536133 C-18.17023157 212.00679598 -14.816317 210.77152164 -11.4621582 209.53686523 C-10.42647202 209.15345978 -9.39078583 208.77005432 -8.32371521 208.37503052 C-3.27434243 206.51993661 1.74084964 204.78756701 6.94018555 203.40405273 C6.43487305 202.34444336 5.92956055 201.28483398 5.40893555 200.19311523 C4.75248423 198.8051896 4.09624522 197.41716354 3.44018555 196.02905273 C3.10631836 195.33038086 2.77245117 194.63170898 2.4284668 193.91186523 C-0.05981445 188.63061523 -0.05981445 188.63061523 -0.05981445 186.40405273 C-0.61668945 186.41307617 -1.17356445 186.42209961 -1.74731445 186.43139648 C-7.81871576 186.19551434 -11.08298301 184.54027464 -15.39575195 180.27905273 C-20.15317194 174.91857951 -20.54304066 170.2107921 -20.3449707 163.24389648 C-19.71184131 156.93862159 -16.59115463 153.54356155 -12.05981445 149.40405273 C-9.02075195 147.62280273 -9.02075195 147.62280273 -5.43481445 145.90405273 C-4.75515625 145.57493896 -4.07549805 145.2458252 -3.37524414 144.90673828 C-1.82078354 144.15570865 -0.263975 143.40952665 1.29467773 142.66723633 C4.20671952 141.27678743 7.10883433 139.86680831 10.01049805 138.45483398 C22.51435176 132.38414266 35.07898433 126.45547125 47.6965332 120.62524414 C57.68054134 116.00557375 67.62636688 111.3075662 77.56518555 106.59155273 C80.79040591 105.06152038 84.01566563 103.531571 87.2409668 102.00170898 C88.4411998 101.43237892 88.4411998 101.43237892 89.66567993 100.85154724 C97.61809118 97.0804683 105.57642202 93.322007 113.53875732 89.57192993 C114.99405155 88.88640944 116.44917551 88.20052737 117.90411377 87.51425171 C121.14921066 85.98374525 124.39586708 84.45694965 127.6484375 82.94238281 C129.65342875 82.0053918 131.65343606 81.05750637 133.64404297 80.09033203 C141.080962 76.56183263 148.34262635 76.04181297 156.31518555 78.40405273 C160.83978664 81.85136785 165.11821908 85.93815335 166.94018555 91.40405273 C167.72883883 101.91437432 167.72883883 101.91437432 165.25268555 106.59155273 C163.47296079 110.40524864 164.48883795 111.91319066 165.86376953 115.73876953 C167.92879341 120.85191667 170.37691614 125.77333545 172.81518555 130.71655273 C173.9978438 133.14284463 175.17916257 135.5697326 176.3581543 137.99780273 C176.65875259 138.61593338 176.95935089 139.23406403 177.26905823 139.8709259 C180.29988272 146.11680357 183.22026495 152.41238926 186.12768555 158.71655273 C192.4950624 172.50167682 198.98897849 186.22554277 205.50028992 199.94316101 C206.21653171 201.45270737 206.93212575 202.96256125 207.64704895 204.47273254 C209.57802205 208.5488955 211.52423627 212.61701282 213.48901367 216.67700195 C214.11522614 217.97866554 214.11522614 217.97866554 214.75408936 219.30662537 C215.55979843 220.9809914 216.37003571 222.653188 217.18536377 224.32289124 C217.54628113 225.07533615 217.90719849 225.82778107 218.27905273 226.60302734 C218.60041199 227.26596298 218.92177124 227.92889862 219.25286865 228.61192322 C219.94018555 230.40405273 219.94018555 230.40405273 219.94018555 233.40405273 C221.13643555 233.48655273 222.33268555 233.56905273 223.56518555 233.65405273 C229.25510451 234.38661726 232.94255028 237.1022452 236.69018555 241.34155273 C240.98819706 247.19162397 241.81413133 252.23769729 240.94018555 259.40405273 C238.80781534 266.38271888 234.49796416 270.46427789 228.18676758 273.90527344 C224.75129705 275.6193299 221.2899589 277.27184878 217.81518555 278.90405273 C216.51289111 279.523474 215.21089441 280.14352157 213.90917969 280.76416016 C204.28469579 285.34199554 194.61872815 289.83255559 184.9440918 294.30322266 C175.37749384 298.72473174 165.84244826 303.21097285 156.31518555 307.71655273 C154.78955821 308.43775986 153.26392344 309.15895125 151.73828125 309.88012695 C148.67073475 311.33031102 145.60328909 312.78070815 142.53588867 314.23120117 C105.59297774 331.69900757 105.59297774 331.69900757 91.00268555 338.34155273 C90.10888184 338.74881592 89.21507812 339.1560791 88.29418945 339.57568359 C80.38791178 343.15285958 73.11308161 345.22414579 64.56518555 342.21655273 C59.47771161 338.70377311 54.99465502 334.55704019 53.43237305 328.40405273 C52.45203851 322.39689643 53.6846149 317.96481601 55.94018555 312.40405273 C57.32672713 308.24442799 55.91008563 306.71258012 54.00268555 302.84155273 C50.94018555 296.58400718 50.94018555 296.58400718 50.94018555 294.40405273 C37.71062412 301.81429336 24.56758237 309.3486254 11.5300293 317.09155273 C2.73601223 322.3124675 -6.11030463 327.44396578 -14.94848633 332.58959961 C-18.20176433 334.48683455 -21.4514549 336.39010058 -24.70043945 338.29467773 C-25.78599121 338.93026611 -26.87154297 339.56585449 -27.98999023 340.22070312 C-30.06734498 341.43717641 -32.14388797 342.65503736 -34.21948242 343.87451172 C-35.15937012 344.42437744 -36.09925781 344.97424316 -37.06762695 345.54077148 C-37.8889209 346.02247803 -38.71021484 346.50418457 -39.55639648 347.00048828 C-42.34652166 348.56479779 -45.19532025 349.98136655 -48.05981445 351.40405273 C-48.1295574 362.29665702 -48.18274859 373.18920751 -48.21525097 384.08199024 C-48.23085643 389.14084109 -48.25200046 394.19953832 -48.28613281 399.25830078 C-48.31890975 404.14719322 -48.33670591 409.03593858 -48.34444618 413.92493248 C-48.34995695 415.7831014 -48.3607175 417.64126296 -48.37700462 419.49936867 C-48.50439399 434.64525881 -47.59701568 447.74888468 -37.09106445 459.63061523 C-26.15944254 470.20577122 -13.49240649 471.56289608 0.97712708 471.5377655 C1.94823557 471.54003106 2.91934407 471.54229662 3.91988009 471.54463083 C7.15297925 471.55092835 10.38603603 471.55014421 13.61914062 471.54931641 C15.94579624 471.55231053 18.27245136 471.55571364 20.59910583 471.55949402 C26.90496529 471.56831197 33.21081116 471.57067119 39.51667619 471.5713098 C43.45983092 471.5720215 47.40298222 471.57415809 51.34613609 471.57680702 C64.40250842 471.58557612 77.45887222 471.59022764 90.5152475 471.58947655 C91.56924296 471.58941661 91.56924296 471.58941661 92.64453125 471.58935547 C93.69982487 471.58929415 93.69982487 471.58929415 94.77643754 471.58923159 C106.17472546 471.58882525 117.57298032 471.59839398 128.97125868 471.61249384 C140.69661257 471.62688297 152.42195036 471.63376264 164.1473133 471.63290006 C170.72151813 471.63264551 177.29568552 471.63547317 183.86988258 471.64607811 C190.05460861 471.6557829 196.2392616 471.65582192 202.42399025 471.64856148 C204.68782661 471.64751863 206.95166758 471.64986062 209.21549606 471.65592194 C234.76453603 472.0436498 234.76453603 472.0436498 256.81518555 460.27905273 C264.11895422 452.18954855 267.07605243 442.20312761 268.2487793 431.61889648 C269.20755633 424.43301092 271.31435522 420.08841758 276.94018555 415.40405273 C282.40915653 412.10203252 287.69799552 411.54170937 293.94018555 412.40405273 C299.97766454 414.19926773 304.73124333 417.97746574 307.94018555 423.40405273 C312.89034765 437.31400825 308.2262639 453.76174632 302.15429688 466.6940918 C298.77825368 473.55055052 294.95818814 479.6094545 289.94018555 485.40405273 C289.33174805 486.20842773 288.72331055 487.01280273 288.09643555 487.84155273 C281.96470316 495.12853905 273.47569189 500.4586582 265.06518555 504.77905273 C264.47898437 505.08818604 263.8927832 505.39731934 263.28881836 505.71582031 C248.0830878 513.14323486 232.79333425 512.98035508 216.2409668 512.92163086 C213.66213589 512.92705917 211.08330808 512.93418579 208.50448608 512.94287109 C202.25898183 512.9605507 196.0136711 512.95686391 189.76815963 512.94522053 C184.68710873 512.93614452 179.60611163 512.9349801 174.52505493 512.9393158 C173.79872276 512.93992873 173.07239058 512.94054166 172.32404834 512.94117317 C170.84798931 512.94245222 169.37193029 512.94374907 167.89587128 512.94506353 C154.09211799 512.95643839 140.28847139 512.94340443 126.48473561 512.92186207 C114.67002753 512.90399388 102.85547673 512.90709887 91.04077148 512.92553711 C77.28254075 512.94699876 63.52440325 512.95534004 49.7661581 512.94308805 C48.29587747 512.94181401 46.82559682 512.94055653 45.35531616 512.9393158 C44.63212655 512.93869869 43.90893694 512.93808159 43.16383249 512.93744579 C38.09565904 512.93400872 33.0275453 512.93978553 27.9593811 512.94923401 C21.12360485 512.96169909 14.28812857 512.95267934 7.45238113 512.92965698 C4.95275995 512.92439541 2.45311365 512.92583956 -0.04649734 512.93470764 C-16.32211469 512.98709964 -30.84620859 512.382591 -45.49731445 504.52905273 C-46.16633789 504.18173096 -46.83536133 503.83440918 -47.5246582 503.4765625 C-52.4153175 500.88257878 -56.853485 498.01632199 -61.05981445 494.40405273 C-61.69790039 493.90776367 -62.33598633 493.41147461 -62.9934082 492.90014648 C-78.8153829 480.10069327 -87.45767485 460.46377176 -89.85510063 440.60218811 C-90.19669136 436.93432305 -90.19040801 433.28244943 -90.17333984 429.60131836 C-90.17348587 428.76134308 -90.1736319 427.9213678 -90.17378235 427.05593872 C-90.17309129 424.30736619 -90.16533702 421.55886328 -90.1574707 418.81030273 C-90.15560365 416.89359575 -90.15418111 414.97688829 -90.15318298 413.06018066 C-90.1493804 408.03624128 -90.13956957 403.0123312 -90.128479 397.98840332 C-90.11821615 392.85351966 -90.11367495 387.71863122 -90.10864258 382.58374023 C-90.09794513 372.52383159 -90.08089606 362.46394461 -90.05981445 352.40405273 C-91.45417725 352.1993335 -91.45417725 352.1993335 -92.87670898 351.99047852 C-104.27987569 349.88966502 -114.23245901 340.4001189 -120.74731445 331.27905273 C-130.46747433 317.02185803 -133.49111112 301.38763603 -131.05981445 284.40405273 C-127.49266246 268.04690498 -118.96030457 254.29034765 -104.83227539 245.0534668 C-102.03147143 243.38719068 -99.2165484 242.02721736 -96.23950195 240.70483398 C-94.77746338 240.05188354 -94.77746338 240.05188354 -93.28588867 239.38574219 C-92.55128418 239.06178467 -91.81667969 238.73782715 -91.05981445 238.40405273 C-91.0574261 237.57451112 -91.05503775 236.7449695 -91.05257702 235.89029026 C-90.9932561 215.63878692 -90.91759784 195.38740088 -90.82409954 175.13602543 C-90.77927078 165.34232222 -90.73982685 155.54865433 -90.71337891 145.75488281 C-90.69029363 137.21150821 -90.6567796 128.66824659 -90.61111289 120.12496179 C-90.58732165 115.60782293 -90.56850108 111.09079498 -90.56220055 106.57359505 C-90.55608513 102.30784043 -90.53585748 98.04236908 -90.50553894 93.77672005 C-90.49686078 92.22453796 -90.49301445 90.67231869 -90.49480629 89.12011337 C-90.51485613 63.70076404 -84.34719675 41.73162745 -66.51293945 22.77514648 C-59.61391303 16.10681999 -52.21101502 11.18606118 -43.62231445 7.02905273 C-42.9674707 6.70727051 -42.31262695 6.38548828 -41.63793945 6.05395508 C-28.12385364 -0.1487479 -14.5541557 -0.03405376 0 0 Z M116.0925293 133.99780273 C115.30062698 134.37636917 114.50872467 134.75493561 113.69282532 135.14497375 C111.08523973 136.39277729 108.48152708 137.64845766 105.87768555 138.90405273 C103.15859415 140.20755407 100.43854718 141.50904716 97.71847534 142.8105011 C95.86489657 143.69758335 94.01164842 144.58535675 92.15872192 145.47380066 C82.49726849 150.10432622 72.79968058 154.65705289 63.09518433 159.1965332 C54.64888455 163.1485865 46.25693922 167.18443753 37.94018555 171.40405273 C42.83549772 182.49756379 47.90212834 193.49188673 53.19018555 204.40405273 C57.58372114 213.47210585 61.90316843 222.56851676 66.12768555 231.71655273 C71.54141591 243.43530865 77.03798795 255.11341648 82.56518555 266.77905273 C82.96103851 267.61514069 83.35689148 268.45122864 83.76473999 269.31265259 C84.89790136 271.70549837 86.03209577 274.09785111 87.16674805 276.48999023 C87.50371201 277.20131607 87.84067596 277.91264191 88.18785095 278.64552307 C90.06040809 282.58842914 91.97369905 286.50677879 93.94018555 290.40405273 C98.40258468 289.00944716 102.54548612 287.27393004 106.76831055 285.27124023 C107.4224292 284.9622731 108.07654785 284.65330597 108.75048828 284.3349762 C110.89857003 283.31950362 113.04437406 282.29931272 115.19018555 281.27905273 C116.69751209 280.56525356 118.20500181 279.85179886 119.71264648 279.13867188 C122.06096664 278.02775294 124.40912283 276.91649711 126.75665283 275.8039093 C132.24942917 273.20092752 137.74887445 270.61251884 143.25268555 268.03295898 C144.76669028 267.32285093 146.28068777 266.61272742 147.79467773 265.90258789 C149.96021718 264.88691503 152.12592858 263.87162153 154.2923584 262.85784912 C163.58020904 258.51019756 172.78996733 254.03525991 181.94018555 249.40405273 C179.66572691 241.91402515 176.52385347 235.10347152 173.06518555 228.09155273 C171.8825273 225.66526084 170.70120852 223.23837287 169.5222168 220.81030273 C169.07131935 219.88310677 169.07131935 219.88310677 168.61131287 218.93717957 C165.58048863 212.69130243 162.66007655 206.39572947 159.75268555 200.09155273 C153.35597725 186.24145275 146.82678477 172.45553908 140.28477478 158.67359924 C139.92742752 157.92078171 139.57008026 157.16796417 139.2019043 156.39233398 C138.8506398 155.65244736 138.49937531 154.91256073 138.13746643 154.1502533 C134.38590267 146.24385795 130.6612812 138.32482335 126.94018555 130.40405273 C122.80443869 130.40405273 119.73896094 132.22775931 116.0925293 133.99780273 Z M18.72583008 242.26147461 C17.60193878 242.67087784 16.47804749 243.08028107 15.32009888 243.50209045 C14.0835556 243.95442551 12.84701233 244.40676056 11.57299805 244.87280273 C10.27819321 245.34509128 8.98334162 245.81725166 7.68844604 246.28929138 C0.60009074 248.8747857 -6.48421639 251.47130716 -13.56762695 254.0703125 C-15.73502442 254.86543328 -17.9024245 255.66054694 -20.06983185 256.45564079 C-21.51985602 256.98766551 -22.96982218 257.51984835 -24.41973114 258.05218697 C-32.74197972 261.10714424 -41.07203803 264.13557039 -49.42776489 267.09811401 C-53.40109746 268.50849704 -57.36815468 269.93597515 -61.33428955 271.36645508 C-63.13572496 272.01094578 -64.94019788 272.64701514 -66.7477417 273.27416992 C-79.95419925 277.48468197 -79.95419925 277.48468197 -89.05981445 287.40405273 C-91.17903333 293.19563541 -91.73006598 297.89215798 -89.10668945 303.58764648 C-86.13638499 308.74134639 -82.85305965 312.472971 -77.05981445 314.40405273 C-66.81064151 316.86604268 -58.96511374 311.04245356 -50.58569336 305.93969727 C-48.02191284 304.3810099 -45.4409839 302.85539774 -42.8527832 301.33764648 C-39.16398837 299.17264486 -35.48223634 296.99640726 -31.8059082 294.81030273 C-26.05409626 291.39427684 -20.27861287 288.01987387 -14.49731445 284.65405273 C-5.11419681 279.18868073 4.2596715 273.70775746 13.62768555 268.21655273 C14.25941681 267.84639038 14.89114807 267.47622803 15.54202271 267.09484863 C17.34548884 266.03805397 19.1487357 264.98088622 20.9519043 263.92358398 C21.98790771 263.31619385 23.02391113 262.70880371 24.09130859 262.08300781 C26.71563331 260.53639019 29.33062402 258.97542417 31.94018555 257.40405273 C31.31973092 253.1708243 29.83494996 249.88114978 27.87768555 246.09155273 C27.32983398 245.02291992 26.78198242 243.95428711 26.2175293 242.85327148 C25.58524414 241.6409082 25.58524414 241.6409082 24.94018555 240.40405273 C22.83503656 240.40405273 20.66363577 241.55421595 18.72583008 242.26147461 Z " fill="#31C6FE" transform="translate(167.059814453125,-0.404052734375)"/>
<path d="M0 0 C0.65169826 -0.00297112 1.30339651 -0.00594224 1.9748432 -0.0090034 C4.16265968 -0.01768791 6.35042143 -0.01919843 8.53825378 -0.02069092 C10.10529701 -0.02531927 11.6723391 -0.03034396 13.23937988 -0.03573608 C17.49979937 -0.0488605 21.76020311 -0.05530513 26.02063966 -0.05974674 C28.68226665 -0.06267743 31.34388932 -0.06678223 34.00551414 -0.07125092 C42.33278153 -0.08492602 50.66003907 -0.09459259 58.98731691 -0.09845281 C68.60056491 -0.10293361 78.21367074 -0.12048244 87.82687551 -0.1494534 C95.25711986 -0.17106851 102.68732421 -0.181157 110.11759967 -0.18249393 C114.55557544 -0.18354209 118.99341756 -0.18945219 123.43136024 -0.20731354 C127.60677643 -0.22379127 131.78195845 -0.22595122 135.95739555 -0.21717453 C137.48842623 -0.21640399 139.01946948 -0.22074913 140.55046844 -0.23063278 C142.64386851 -0.24335268 144.73643927 -0.23747613 146.82983398 -0.22705078 C148.00030179 -0.22851734 149.1707696 -0.2299839 150.37670612 -0.2314949 C156.03498489 0.42032502 159.80928949 2.83944333 163.41789246 7.14044189 C164.00183777 7.82106689 164.58578308 8.50169189 165.18742371 9.20294189 C168.78399926 14.11727102 168.00668111 20.33719056 167.60539246 26.14044189 C165.84363704 31.97625672 161.41975749 35.61702555 156.60539246 39.14044189 C153.26047032 40.25541594 150.74316244 40.27471368 147.21751404 40.28761292 C146.56652135 40.2912896 145.91552866 40.29496629 145.24480891 40.29875439 C143.0593314 40.30978393 140.87390144 40.31363382 138.68840027 40.31744385 C137.12297922 40.32370906 135.55755966 40.33035591 133.99214172 40.33735657 C128.84761083 40.35839259 123.70307965 40.36875852 118.55851746 40.37872314 C116.78708124 40.38277087 115.01564518 40.3868878 113.24420929 40.39107323 C104.92174798 40.41012389 96.59929553 40.42435518 88.27681661 40.4326852 C78.67202662 40.44245756 69.06746709 40.46877752 59.4627583 40.50918609 C52.0375948 40.53935225 44.61249734 40.55415455 37.18727374 40.55746621 C32.75313006 40.55981614 28.31923263 40.56876905 23.88515472 40.59392738 C19.71214885 40.61722194 15.5395511 40.6214359 11.36649704 40.611166 C9.83749152 40.61067086 8.30846583 40.6169849 6.77952194 40.63072205 C-1.97824169 40.70498617 -8.31216825 40.68788757 -15.10163879 34.61309814 C-20.05416655 28.29556274 -21.35216404 23.07967609 -20.39460754 15.14044189 C-18.56936399 8.94335749 -14.70500086 4.70123927 -9.39460754 1.14044189 C-6.04605161 0.02425658 -3.52955611 0.0089788 0 0 Z " fill="#3FB9FE" transform="translate(240.3946075439453,387.85955810546875)"/>
</svg>
